# xmcd
#
# Track frame offsets:
#	150
#	16862
#	35565
#	54962
#	77082
#	93135
#	114222
#	138640
#	156890
#	176990
#	195517
#	212857
#
# Disc length: 3085 seconds
# Revision: 1
# Processed by: cddbd v1.5.2PL0 Copyright (c) Steve Scherf et al.
# Submitted via: dBpowerAMP V12.0
#
DISCID=980c0b0c
DTITLE=Marlene - Footprint ~ Best Selection [dBP-LITE-FLAC@]
DYEAR=1984
DGENRE=Jazz
TTITLE0=Zanzibar Night
TTITLE1=I'll Take My Time
TTITLE2=Beware Boyfriend
TTITLE3=ESP
TTITLE4=Do You Love Me?
TTITLE5=We're All Alone	
TTITLE6=It's Magic
TTITLE7=Creature Of The Night
TTITLE8=Woman In Love
TTITLE9=The Cheater
TTITLE10=Summer Night
TTITLE11=Lovin' You
EXTD=
EXTT0=
EXTT1=
EXTT2=
EXTT3=
EXTT4=
EXTT5=
EXTT6=
EXTT7=
EXTT8=
EXTT9=
EXTT10=
EXTT11=
PLAYORDER=
